<?xml version="1.0" encoding="utf-8"?>
<!-- Generator: Adobe Illustrator 24.3.0, SVG Export Plug-In . SVG Version: 6.00 Build 0)  -->
<svg version="1.1" id="Слой_1" xmlns="http://www.w3.org/2000/svg" xmlns:xlink="http://www.w3.org/1999/xlink" x="0px" y="0px"
	 viewBox="0 0 80 80" style="enable-background:new 0 0 80 80;" xml:space="preserve">
<style type="text/css">
	.st0{fill:none;stroke:#EE6F5A;stroke-width:2.5;stroke-linecap:round;stroke-linejoin:round;}
	
		.st1{fill-rule:evenodd;clip-rule:evenodd;fill:#EF7D4F;fill-opacity:0.2;stroke:#EE6F5A;stroke-width:2.5;stroke-linecap:round;stroke-linejoin:round;}
	.st2{fill-rule:evenodd;clip-rule:evenodd;fill:none;stroke:#EE6F5A;stroke-width:2.5;stroke-linecap:round;stroke-linejoin:round;}
</style>
<g>
	<path class="st0" d="M48.8,27.9l-2.2,0.9c-0.6,0.2-1.3,0-1.5-0.6l-1-2.2c-0.2-0.6,0-1.3,0.6-1.5l2.2-0.9c-0.3-1.5-0.3-3.1,0-4.6
		l-2.4-1c-0.6-0.3-0.9-1-0.7-1.6l0.9-2.2c0.3-0.6,1-0.9,1.6-0.6l2.4,1c0.9-1.3,2-2.4,3.3-3.3l-0.9-2.2c-0.2-0.6,0-1.3,0.6-1.5l2.3-1
		c0.6-0.2,1.3,0,1.5,0.6l0.9,2.2c1.5-0.3,3.1-0.3,4.6,0L62,7c0.3-0.6,1-0.9,1.6-0.7l2.2,0.9c0.6,0.3,0.9,1,0.7,1.6l-1,2.4
		c1.3,0.9,2.4,2,3.3,3.3l2.2-0.9c0.6-0.2,1.3,0,1.5,0.6l0.9,2.2c0.2,0.6,0,1.3-0.6,1.5l-2.2,0.9c0.3,1.5,0.3,3.1,0,4.6l2.4,1
		c0.6,0.3,0.9,1,0.7,1.6l-0.9,2.2c-0.3,0.6-1,0.9-1.6,0.6l-2.4-1c-0.9,1.3-2,2.4-3.3,3.3l0.9,2.2c0.2,0.6,0,1.3-0.6,1.5l-2.2,0.9
		c-0.6,0.2-1.3,0-1.5-0.6l-1-2.1c-1.5,0.3-3.1,0.3-4.6,0l-1,2.5c-0.3,0.6-1,0.9-1.6,0.7l-2.2-0.9c-0.6-0.3-0.9-1-0.7-1.6l1-2.5
		C50.7,30.3,49.6,29.2,48.8,27.9L48.8,27.9z"/>
	<path class="st1" d="M17.3,67.7c-0.7,0.7-1.8,0.7-2.5,0l-2.5-2.5c-0.7-0.7-0.7-1.8,0-2.5l2.5-2.5c-1.3-1.9-2.2-4-2.7-6.4h-4
		c-1,0-1.8-0.9-1.8-1.9v-3.7c0-1,0.8-1.9,1.8-1.9h4c0.5-2.4,1.4-4.5,2.7-6.4l-2.5-2.5c-0.7-0.7-0.7-1.8,0-2.5l2.5-2.5
		c0.7-0.7,1.8-0.7,2.5,0l2.5,2.5c1.9-1.3,4-2.2,6.4-2.7v-4c0-1,0.9-1.8,1.9-1.8h3.7c1,0,1.9,0.8,1.9,1.8v4c2.4,0.5,4.5,1.4,6.4,2.7
		l2.5-2.5c0.7-0.7,1.8-0.7,2.5,0l2.5,2.5c0.7,0.7,0.7,1.8,0,2.5l-2.5,2.5c1.3,1.9,2.2,4,2.7,6.4h4c1,0,1.8,0.9,1.8,1.9v3.7
		c0,1-0.8,1.9-1.8,1.9h-4c-0.5,2.4-1.4,4.5-2.7,6.4l2.5,2.5c0.7,0.7,0.7,1.8,0,2.5l-2.5,2.5c-0.7,0.7-1.8,0.7-2.5,0l-2.5-2.5
		c-1.9,1.3-4,2.2-6.4,2.7v4c0,1-0.9,1.8-1.9,1.8h-3.7c-1,0-1.9-0.8-1.9-1.8v-4c-2.4-0.5-4.5-1.4-6.4-2.7L17.3,67.7z"/>
	<path class="st2" d="M38.8,50c0,4.8-3.9,8.8-8.8,8.8s-8.8-3.9-8.8-8.8c0-4.8,3.9-8.8,8.8-8.8S38.8,45.2,38.8,50z"/>
	<path class="st0" d="M63.8,21.2c0,2.8-2.2,5-5,5s-5-2.2-5-5s2.2-5,5-5S63.8,18.5,63.8,21.2z"/>
</g>
</svg>
