<?xml version="1.0" encoding="utf-8"?>
<!-- Generator: Adobe Illustrator 24.3.0, SVG Export Plug-In . SVG Version: 6.00 Build 0)  -->
<svg version="1.1" id="Capa_1" xmlns="http://www.w3.org/2000/svg" xmlns:xlink="http://www.w3.org/1999/xlink" x="0px" y="0px"
	 viewBox="0 0 377.9 377.9" style="enable-background:new 0 0 377.9 377.9;" xml:space="preserve">
<style type="text/css">
	.st0{fill:#EE6F5A;}
</style>
<g>
	<g>
		<g>
			<path class="st0" d="M300.1,68.5c-9.2-9.2-18.4-16.8-28-23.2c-8-5.6-16-10-24-13.6c2.8-8.4,4.4-14.4,4.8-18.8
				c0.4-6.4-1.6-10.8-6-12.4c-4-1.2-8-0.4-12.8,3.2c-4.4,3.2-10.4,9.6-17.6,18.4c-58-11.6-114,15.6-145.2,50.8
				c-10.4,11.6-18,24-22.4,36.4v0.4c-4.4,12.8-5.6,25.6-2.8,37.2c4.8,19.2,20.4,35.2,49.6,43.6l-10.4,14.4
				c-14,2.8-26.8,10-36.4,21.6c-17.2,20.8-22,44.8-20,67.6c2.4,33.6,19.6,64.8,30.8,77.2c5.2,6,8.8,7.6,12.8,6l48-1.2
				c3.6,0,6.8-2.8,6.8-6.8c0-3.6-2.8-6.8-6.8-6.8l-37.2,0.4c3.2-6,8.8-13.6,20.8-21.6h0.4c16.8-10.8,35.6-23.6,47.2-42.8
				c0.4-0.4,0.8-0.8,0.8-1.2c8.4-14.8,10-32,6-47.2c-0.4-1.6-1.2-3.2-1.6-4.8l9.2-21.2c1.6,2.4,2.4,5.2,3.6,8.4
				c2.4,7.6,4.4,16.4,6,25.6c6.4,38,23.6,57.6,44.8,64c20,6,43.6-0.8,64.8-16c20.4-14.8,39.2-38,51.2-65.2
				C358.1,190.5,356.9,125.3,300.1,68.5z M237.3,20.1c2.7,9.1-52.4,125.6-52.4,125.6l-28.4-16.4l20.4-28.4l23.6-33.2
				C200.5,67.7,232.7,23.3,237.3,20.1z M160.9,85.3c-3.2-3.2-4.8-7.2-4.8-11.2s1.6-8,4.8-11.2s7.2-4.8,11.2-4.8s8,1.6,11.2,4.8
				c0.8,0.8,1.6,1.6,1.6,2.4l-17.2,24c-0.4-0.4-1.2-0.4-2-0.8C164.1,87.7,162.5,86.9,160.9,85.3z M59.7,143.7
				c-2-9.2-1.2-19.2,2.4-29.2v-0.4c4-10.4,10.4-21.6,19.6-31.6c27.2-30.8,74.8-54.4,124-46c-1.2,1.6-2.8,3.6-4.4,6l-8,10.8
				c0-0.4-0.4-0.4-0.4-0.4c-5.6-5.6-13.2-8.4-20.4-8.4c-7.6,0-15.2,3.2-20.8,8.8c-6,5.6-8.8,13.2-8.8,20.8s3.2,15.2,8.8,20.8
				c2.4,2.8,5.2,4.4,8.4,6l-55.6,77.6C77.3,172.1,63.7,159.3,59.7,143.7z M140.1,292.1v0.4c-10,16.4-27.6,28-43.2,38.4h-0.4
				c-17.2,11.2-23.6,22.8-27.2,30c-10-11.6-23.6-38.4-26-67.2c-1.6-19.6,2.4-40.4,16.8-57.6c7.6-9.2,17.6-14.8,28.8-16.8
				c15.7-3.3,28.4,2.8,32.8,5.2c11.6,6.8,19.2,17.6,23.2,30.4C148.1,266.9,146.9,280.5,140.1,292.1z M158.1,206.9l-12.4,22.4
				c-12.8-21.5-41.6-24.8-42.8-24.8l10-14l35.6-50l30.8,17.6L158.1,206.9z M323.7,236.5c-10.8,24.8-28,46-46.8,59.2
				c-17.6,12.8-36.8,18.8-52.8,14c-16.4-4.8-29.6-21.2-35.2-52.8c-1.6-10-4-19.2-6.8-28c-2.4-7.6-5.6-14.4-9.6-20
				c0,0,70.4-162,70.8-163.2c7.2,3.2,14.4,7.2,21.2,12c8.4,6,17.2,13.2,25.6,21.6C342.1,131.3,343.7,190.9,323.7,236.5z"/>
			<path class="st0" d="M200.5,363.7h-14.4c-3.6,0-6.8,2.8-6.8,6.8c0,3.6,2.8,6.8,6.8,6.8h14.4c3.6,0,6.8-2.8,6.8-6.8
				C207.3,366.9,204.5,363.7,200.5,363.7z"/>
			<path class="st0" d="M165.3,363.7h-24c-3.6,0-6.8,2.8-6.8,6.8c0,3.6,2.8,6.8,6.8,6.8h24c3.6,0,6.8-2.8,6.8-6.8
				C172.1,366.9,169.3,363.7,165.3,363.7z"/>
			<path class="st0" d="M256.1,74.5c-10,0-19.6,3.6-27.2,11.2l-0.4,0.4c-7.2,7.6-10.8,17.2-10.8,26.8c0,10,3.6,19.6,11.2,27.2
				c7.6,7.6,17.2,11.2,27.2,11.2s19.6-3.6,27.2-11.2l0.4-0.4c7.2-7.6,10.8-17.2,10.8-26.8c0-10-3.6-19.6-11.2-27.2
				C276.1,78.1,266.1,74.5,256.1,74.5z M280.5,113.3c0,6.4-2.4,12.4-6.8,17.2l-0.4,0.4c-4.4,4.8-10.8,7.2-17.2,7.2
				c-6,0-12.4-2.4-17.2-7.2c-4.8-4.8-7.2-11.2-7.2-17.6s2.4-12.4,6.8-17.2l0.4-0.4c4.8-4.8,11.2-7.2,17.6-7.2c6,0,12.4,2.4,17.2,7.2
				C278.5,100.5,280.9,106.5,280.5,113.3z"/>
			<path class="st0" d="M265.7,196.5c0,7.6,3.2,15.2,8.8,20.8c5.6,6,13.2,8.8,20.8,8.8s15.2-3.2,20.8-8.8c6-5.6,8.8-13.2,8.8-20.8
				s-3.2-15.2-8.8-20.8c-6-5.6-13.6-8.4-20.8-8.8c-7.6,0-15.2,3.2-20.8,8.8C268.5,181.3,265.7,188.9,265.7,196.5z M283.7,185.7
				c3.2-3.2,7.2-4.8,11.2-4.8s8,1.6,11.2,4.8s4.8,7.2,4.8,11.2s-1.6,8-4.8,11.2s-7.2,4.8-11.2,4.8s-8-1.6-11.2-4.8
				s-4.8-7.2-4.8-11.2S280.5,188.9,283.7,185.7z"/>
			<path class="st0" d="M274.9,245.7c-4.8-5.2-11.6-7.6-18-7.6s-12.8,2.4-18,7.6c-5.2,4.8-7.6,11.6-7.6,18s2.4,12.8,7.6,18
				c4.8,5.2,11.6,7.6,18,7.6s12.8-2.4,18-7.6c5.2-4.8,7.6-11.6,7.6-18s-2.4-12.8-7.2-17.6C274.9,246.1,274.9,245.7,274.9,245.7z
				 M264.9,272.1c-2.4,2.4-5.2,3.6-8.4,3.6s-6-1.2-8.4-3.6s-3.6-5.2-3.6-8.4c0-3.2,1.2-6,3.6-8.4c2.4-2.4,5.2-3.6,8.4-3.6
				c3.2,0,6,1.2,8.4,3.6l0.4,0.4c2,2.4,3.2,5.2,3.2,8C268.5,266.9,267.3,269.7,264.9,272.1z"/>
			<path class="st0" d="M123.3,130.5c5.2-4.8,7.6-11.6,7.6-18s-2.4-12.8-7.6-18c-4.8-5.2-11.6-7.6-18-7.6s-13.2,2.4-18,7.6
				c-5.2,4.8-7.6,11.6-7.6,18s2.4,12.8,7.6,18c4.8,5.2,11.6,7.6,18,7.6C111.7,138.1,118.1,135.7,123.3,130.5z M93.3,112.5
				c0-3.2,1.2-6,3.6-8.4s5.2-3.6,8.4-3.6s6,1.2,8.4,3.6s3.6,5.2,3.6,8.4c0,3.2-1.2,6-3.6,8.4s-5.2,3.6-8.4,3.6s-6-1.2-8.4-3.6
				S93.3,115.7,93.3,112.5z"/>
		</g>
	</g>
</g>
</svg>
